<?xml version="1.0" encoding="utf-8"?>
<!-- Generator: Adobe Illustrator 27.0.1, SVG Export Plug-In . SVG Version: 6.00 Build 0)  -->
<svg version="1.1" id="Layer_1" xmlns="http://www.w3.org/2000/svg" xmlns:xlink="http://www.w3.org/1999/xlink" x="0px" y="0px"
	 viewBox="0 0 157.7 16" style="enable-background:new 0 0 157.7 16;" xml:space="preserve">
<style type="text/css">
	.st0{fill:#3ABBE4;}
	.st1{fill:#081A20;}
</style>
<path class="st0" d="M2.6,12.6c-0.5,0-0.9,0-1.4-0.1c-0.4-0.1-0.9-0.2-1.2-0.3V9.8c0.3,0.1,0.6,0.2,1,0.3c0.4,0.1,0.7,0.1,1.1,0.1
	c0.7,0,1.2-0.1,1.5-0.4C3.8,9.5,4,9,4,8.4V1h2.9v7.9c0,1.2-0.4,2.1-1.1,2.7C5,12.3,4,12.6,2.6,12.6z"/>
<path class="st0" d="M11.4,12.6c-1,0-1.8-0.3-2.3-0.8c-0.6-0.6-0.8-1.4-0.8-2.5V4h2.9v5.1c0,0.5,0.1,0.8,0.3,1
	c0.2,0.2,0.6,0.3,1,0.3c0.3,0,0.7-0.1,1-0.2c0.3-0.1,0.6-0.3,0.8-0.5V4h2.9v8.4h-2.7l-0.1-0.7c-0.3,0.3-0.8,0.5-1.2,0.6
	C12.6,12.5,12.1,12.6,11.4,12.6z"/>
<path class="st0" d="M22.4,12.6c-0.8,0-1.5-0.1-2.1-0.4c-0.6-0.3-1-0.7-1.3-1.3c-0.3-0.6-0.5-1.4-0.5-2.4c0-1,0.2-1.9,0.5-2.6
	c0.4-0.7,0.8-1.2,1.5-1.6c0.6-0.4,1.3-0.5,2.1-0.5c0.4,0,0.8,0,1.2,0.1c0.3,0.1,0.7,0.2,1,0.4V0.5h2.9v11.9h-2.5l-0.2-0.7
	c-0.3,0.3-0.7,0.5-1.2,0.7C23.5,12.5,23,12.6,22.4,12.6z M23.2,10.5c0.6,0,1.2-0.2,1.6-0.6V6.5C24.4,6.1,23.9,6,23.3,6
	c-0.6,0-1.1,0.2-1.4,0.7c-0.3,0.5-0.5,1.1-0.5,1.9c0,0.8,0.2,1.3,0.5,1.6C22.2,10.4,22.6,10.5,23.2,10.5z"/>
<path class="st0" d="M33.7,12.6c-1.6,0-2.8-0.4-3.6-1.1C29.3,10.7,29,9.7,29,8.2c0-1.4,0.4-2.5,1.2-3.2c0.8-0.8,2-1.1,3.6-1.1
	c1.6,0,2.8,0.4,3.6,1.1s1.2,1.8,1.2,3.2c0,1.4-0.4,2.5-1.2,3.3C36.5,12.2,35.3,12.6,33.7,12.6z M33.7,10.4c0.7,0,1.1-0.2,1.4-0.5
	c0.3-0.3,0.4-0.9,0.4-1.6s-0.1-1.3-0.4-1.6c-0.3-0.3-0.8-0.5-1.4-0.5c-0.6,0-1.1,0.2-1.4,0.5c-0.3,0.3-0.4,0.9-0.4,1.6
	s0.1,1.3,0.4,1.6C32.6,10.2,33,10.4,33.7,10.4z"/>
<path class="st1" d="M40.2,12.4V1h1.6L45.7,9L49.5,1h1.6v11.4h-1.4V3.3l-3.5,7.2h-1l-3.5-7.2v9.1H40.2z"/>
<path class="st1" d="M56.2,12.6c-0.5,0-1-0.1-1.5-0.3c-0.4-0.2-0.8-0.5-1.1-0.8c-0.3-0.4-0.4-0.8-0.4-1.4c0-0.8,0.3-1.4,0.8-1.9
	c0.5-0.5,1.3-0.7,2.5-0.7h2.9V7c0-0.5-0.1-0.8-0.2-1.1c-0.1-0.3-0.4-0.5-0.7-0.6c-0.3-0.1-0.8-0.2-1.5-0.2c-0.5,0-1,0-1.5,0.1
	c-0.5,0.1-0.9,0.2-1.3,0.3V4.3C54.6,4.2,55,4.1,55.5,4c0.5-0.1,1.1-0.1,1.7-0.1c1.2,0,2.1,0.2,2.7,0.7c0.6,0.5,0.9,1.3,0.9,2.4v5.5
	h-1.2l-0.1-1c-0.4,0.4-0.8,0.7-1.3,0.9C57.6,12.5,56.9,12.6,56.2,12.6z M56.5,11.4c0.6,0,1.2-0.1,1.6-0.3c0.5-0.2,0.9-0.5,1.2-0.9
	V8.6h-2.9c-0.7,0-1.1,0.1-1.4,0.4c-0.3,0.2-0.4,0.6-0.4,1.1c0,0.5,0.2,0.9,0.5,1.1C55.5,11.3,56,11.4,56.5,11.4z"/>
<path class="st1" d="M63.2,12.4V4h1.3l0.1,1c0.4-0.3,0.9-0.6,1.4-0.8c0.5-0.2,1.2-0.3,1.9-0.3c1.1,0,1.8,0.2,2.3,0.7
	c0.5,0.5,0.7,1.3,0.7,2.3v5.5h-1.5V7c0-0.7-0.1-1.2-0.4-1.5C68.7,5.2,68.1,5,67.3,5c-0.5,0-1,0.1-1.5,0.3c-0.5,0.2-0.9,0.4-1.2,0.8
	v6.3H63.2z"/>
<path class="st1" d="M75.6,12.6c-0.5,0-1-0.1-1.5-0.3c-0.4-0.2-0.8-0.5-1.1-0.8c-0.3-0.4-0.4-0.8-0.4-1.4c0-0.8,0.3-1.4,0.8-1.9
	c0.5-0.5,1.3-0.7,2.5-0.7h2.9V7c0-0.5-0.1-0.8-0.2-1.1c-0.1-0.3-0.4-0.5-0.7-0.6c-0.3-0.1-0.8-0.2-1.5-0.2c-0.5,0-1,0-1.5,0.1
	c-0.5,0.1-0.9,0.2-1.3,0.3V4.3C74,4.2,74.4,4.1,74.9,4c0.5-0.1,1.1-0.1,1.7-0.1c1.2,0,2.1,0.2,2.7,0.7c0.6,0.5,0.9,1.3,0.9,2.4v5.5
	H79l-0.1-1c-0.4,0.4-0.8,0.7-1.3,0.9C77,12.5,76.4,12.6,75.6,12.6z M76,11.4c0.6,0,1.2-0.1,1.6-0.3c0.5-0.2,0.9-0.5,1.2-0.9V8.6
	h-2.9c-0.7,0-1.1,0.1-1.4,0.4c-0.3,0.2-0.4,0.6-0.4,1.1c0,0.5,0.2,0.9,0.5,1.1C74.9,11.3,75.4,11.4,76,11.4z"/>
<path class="st1" d="M85.8,15.6c-0.6,0-1.2,0-1.8-0.1c-0.6-0.1-1.1-0.2-1.5-0.3v-1.2c0.5,0.2,1,0.3,1.6,0.4c0.6,0.1,1.2,0.1,1.7,0.1
	c0.9,0,1.5-0.1,1.9-0.2c0.4-0.1,0.6-0.4,0.6-0.8c0-0.3-0.1-0.5-0.3-0.7s-0.6-0.2-1.2-0.2h-2.2c-1.5,0-2.3-0.5-2.3-1.6
	c0-0.3,0.1-0.7,0.3-1c0.2-0.3,0.5-0.5,1-0.7c-0.5-0.2-0.8-0.6-1-1c-0.2-0.4-0.3-0.9-0.3-1.5c0-1.1,0.3-1.8,0.9-2.3
	c0.6-0.5,1.5-0.7,2.8-0.7c0.3,0,0.5,0,0.8,0.1C87,4,87.2,4,87.4,4h3l-0.1,1h-1.5c0.3,0.2,0.5,0.5,0.6,0.8c0.1,0.3,0.2,0.7,0.2,1
	c0,0.9-0.3,1.7-0.8,2.2c-0.5,0.5-1.4,0.8-2.5,0.8c-0.2,0-0.4,0-0.5,0s-0.3,0-0.5-0.1c-0.4,0-0.7,0.1-1,0.3c-0.3,0.2-0.5,0.4-0.5,0.8
	c0,0.2,0.1,0.3,0.2,0.4c0.2,0.1,0.5,0.1,0.9,0.1h2.3c0.8,0,1.5,0.2,1.9,0.5c0.4,0.3,0.7,0.8,0.7,1.5c0,0.8-0.3,1.4-1,1.7
	C88.1,15.4,87.1,15.6,85.8,15.6z M85.9,8.7c0.8,0,1.4-0.1,1.7-0.4C88,8,88.1,7.6,88.1,6.9c0-0.7-0.2-1.2-0.5-1.5
	c-0.3-0.3-0.9-0.5-1.7-0.5c-0.8,0-1.4,0.1-1.7,0.4c-0.4,0.3-0.5,0.8-0.5,1.5c0,0.6,0.2,1.1,0.5,1.4C84.5,8.6,85.1,8.7,85.9,8.7z"/>
<path class="st1" d="M96,12.6c-1.5,0-2.6-0.4-3.4-1.1c-0.7-0.7-1.1-1.8-1.1-3.3c0-1.3,0.3-2.4,1-3.2c0.6-0.8,1.7-1.2,3.1-1.2
	c0.8,0,1.5,0.2,2,0.5c0.5,0.3,0.9,0.7,1.2,1.2c0.3,0.5,0.4,1.1,0.4,1.8v1.6H93c0,0.6,0.2,1.1,0.4,1.5c0.2,0.4,0.6,0.6,1,0.8
	c0.5,0.2,1.1,0.2,1.9,0.2c0.9,0,1.7-0.1,2.4-0.4v1.1c-0.4,0.2-0.8,0.3-1.2,0.4C97,12.6,96.5,12.6,96,12.6z M93,7.9h4.9V7.2
	c0-0.7-0.2-1.2-0.5-1.6C97,5.2,96.4,5,95.6,5c-1,0-1.7,0.2-2.1,0.7C93.2,6.2,93,6.9,93,7.9z"/>
<path class="st1" d="M101.4,12.4V4h1.3l0.1,1.1c0.4-0.3,0.9-0.5,1.5-0.7c0.6-0.2,1.1-0.4,1.7-0.5V5c-0.3,0.1-0.7,0.2-1.1,0.3
	c-0.4,0.1-0.8,0.3-1.1,0.4c-0.4,0.2-0.6,0.3-0.9,0.5v6.3H101.4z"/>
<g>
	<path class="st1" d="M109.9,12.4V1h5.4c0.9,0,1.6,0.2,2.2,0.5c0.6,0.3,1,0.8,1.3,1.4s0.4,1.3,0.4,2c0,0.8-0.2,1.5-0.5,2
		c-0.3,0.6-0.8,1-1.4,1.4c-0.6,0.3-1.3,0.5-2.1,0.5h-2.9v3.6L109.9,12.4L109.9,12.4z M112.3,7h2.4c0.7,0,1.2-0.2,1.5-0.5
		c0.4-0.4,0.5-0.9,0.5-1.5c0-0.7-0.2-1.2-0.5-1.5c-0.3-0.4-0.8-0.5-1.5-0.5h-2.5L112.3,7L112.3,7z"/>
	<path class="st1" d="M124.7,12.6c-1.6,0-2.7-0.4-3.5-1.1c-0.7-0.8-1.1-1.8-1.1-3.2s0.4-2.5,1.1-3.2c0.7-0.8,1.9-1.1,3.4-1.1
		c1.6,0,2.7,0.4,3.5,1.1c0.7,0.8,1.1,1.8,1.1,3.2s-0.4,2.5-1.1,3.2C127.5,12.3,126.3,12.6,124.7,12.6z M124.7,10.6
		c0.8,0,1.3-0.2,1.6-0.5c0.3-0.4,0.5-1,0.5-1.8s-0.2-1.5-0.5-1.8c-0.3-0.4-0.9-0.5-1.6-0.5s-1.3,0.2-1.6,0.5c-0.3,0.4-0.5,1-0.5,1.8
		s0.2,1.5,0.5,1.8C123.4,10.4,124,10.6,124.7,10.6z"/>
	<path class="st1" d="M131,12.4V4h2.2l0.1,0.9c0.4-0.2,0.9-0.5,1.4-0.6c0.6-0.2,1.1-0.3,1.7-0.4v1.8c-0.3,0-0.7,0.1-1,0.2
		c-0.4,0.1-0.7,0.2-1.1,0.3c-0.3,0.1-0.6,0.2-0.9,0.4v5.9L131,12.4L131,12.4z"/>
	<path class="st1" d="M140.9,12.6c-1,0-1.7-0.3-2.2-0.8c-0.5-0.5-0.7-1.2-0.7-2.1V5.9h-1.2V4h1.2V2.2l2.4-0.7V4h2.1l-0.1,1.8h-2v3.8
		c0,0.5,0.1,0.8,0.3,1c0.2,0.2,0.5,0.3,1,0.3c0.3,0,0.7-0.1,1-0.2v1.6c-0.3,0.1-0.5,0.2-0.9,0.2C141.6,12.6,141.3,12.6,140.9,12.6z"
		/>
	<path class="st1" d="M146.6,12.6c-0.5,0-1-0.1-1.5-0.3s-0.8-0.5-1.1-0.9c-0.3-0.4-0.4-0.9-0.4-1.5c0-0.8,0.3-1.5,0.9-2
		c0.6-0.5,1.5-0.7,2.6-0.7h2.5V7.1c0-0.5-0.1-0.9-0.4-1.1c-0.3-0.2-0.9-0.3-1.7-0.3c-1,0-1.9,0.1-2.8,0.5V4.4
		c0.4-0.2,0.9-0.3,1.4-0.4c0.6-0.1,1.2-0.1,1.8-0.1c1.3,0,2.2,0.3,2.9,0.8c0.7,0.5,1,1.3,1,2.5v5.3h-2.1l-0.1-0.8
		c-0.3,0.3-0.7,0.5-1.2,0.7C148,12.5,147.4,12.6,146.6,12.6z M147.3,11.1c0.5,0,1-0.1,1.4-0.3c0.4-0.2,0.7-0.4,0.9-0.7V8.8h-2.4
		c-0.9,0-1.4,0.4-1.4,1.2C145.8,10.7,146.3,11.1,147.3,11.1z"/>
	<path class="st1" d="M156.2,12.6c-0.8,0-1.4-0.2-1.8-0.6c-0.4-0.4-0.6-1-0.6-1.8V0.5h2.4v9.6c0,0.3,0.1,0.5,0.2,0.6
		c0.1,0.1,0.3,0.2,0.5,0.2c0.3,0,0.6,0,0.8-0.1v1.6C157.3,12.5,156.8,12.6,156.2,12.6z"/>
</g>
</svg>
